<mxfile host="app.diagrams.net" modified="2020-11-15T16:29:42.972Z" agent="5.0 (Windows)" etag="jasmHT4aP16l8tGqgAat" version="13.9.7" type="github">
  <diagram id="C5RBs43oDa-KdzZeNtuy" name="Page-1">
    <mxGraphModel dx="2500" dy="898" grid="1" gridSize="10" guides="1" tooltips="1" connect="1" arrows="1" fold="1" page="1" pageScale="1" pageWidth="827" pageHeight="1169" math="0" shadow="0">
      <root>
        <mxCell id="WIyWlLk6GJQsqaUBKTNV-0" />
        <mxCell id="WIyWlLk6GJQsqaUBKTNV-1" parent="WIyWlLk6GJQsqaUBKTNV-0" />
        <mxCell id="PZnZLYRX3Kic9TIcQ0ql-19" style="edgeStyle=orthogonalEdgeStyle;rounded=0;orthogonalLoop=1;jettySize=auto;html=1;exitX=1;exitY=0.5;exitDx=0;exitDy=0;entryX=-0.006;entryY=0.331;entryDx=0;entryDy=0;entryPerimeter=0;startSize=10;endArrow=diamond;endFill=0;endSize=16;" edge="1" parent="WIyWlLk6GJQsqaUBKTNV-1" source="PZnZLYRX3Kic9TIcQ0ql-0" target="PZnZLYRX3Kic9TIcQ0ql-16">
          <mxGeometry relative="1" as="geometry" />
        </mxCell>
        <mxCell id="PZnZLYRX3Kic9TIcQ0ql-20" value="0..*" style="edgeLabel;html=1;align=center;verticalAlign=middle;resizable=0;points=[];" vertex="1" connectable="0" parent="PZnZLYRX3Kic9TIcQ0ql-19">
          <mxGeometry x="-0.8505" y="-1" relative="1" as="geometry">
            <mxPoint y="-18" as="offset" />
          </mxGeometry>
        </mxCell>
        <mxCell id="PZnZLYRX3Kic9TIcQ0ql-21" value="1" style="edgeLabel;html=1;align=center;verticalAlign=middle;resizable=0;points=[];" vertex="1" connectable="0" parent="PZnZLYRX3Kic9TIcQ0ql-19">
          <mxGeometry x="0.8584" y="-1" relative="1" as="geometry">
            <mxPoint x="3.94" y="-18.12" as="offset" />
          </mxGeometry>
        </mxCell>
        <mxCell id="PZnZLYRX3Kic9TIcQ0ql-0" value="Person" style="swimlane;fontStyle=3;align=center;verticalAlign=top;childLayout=stackLayout;horizontal=1;startSize=26;horizontalStack=0;resizeParent=1;resizeParentMax=0;resizeLast=0;collapsible=1;marginBottom=0;" vertex="1" parent="WIyWlLk6GJQsqaUBKTNV-1">
          <mxGeometry x="100" y="30" width="160" height="114" as="geometry" />
        </mxCell>
        <mxCell id="PZnZLYRX3Kic9TIcQ0ql-1" value="- firstName: string&#xa;- lastName: string&#xa;- age: int&#xa;" style="text;strokeColor=none;fillColor=none;align=left;verticalAlign=top;spacingLeft=4;spacingRight=4;overflow=hidden;rotatable=0;points=[[0,0.5],[1,0.5]];portConstraint=eastwest;" vertex="1" parent="PZnZLYRX3Kic9TIcQ0ql-0">
          <mxGeometry y="26" width="160" height="54" as="geometry" />
        </mxCell>
        <mxCell id="PZnZLYRX3Kic9TIcQ0ql-2" value="" style="line;strokeWidth=1;fillColor=none;align=left;verticalAlign=middle;spacingTop=-1;spacingLeft=3;spacingRight=3;rotatable=0;labelPosition=right;points=[];portConstraint=eastwest;" vertex="1" parent="PZnZLYRX3Kic9TIcQ0ql-0">
          <mxGeometry y="80" width="160" height="8" as="geometry" />
        </mxCell>
        <mxCell id="PZnZLYRX3Kic9TIcQ0ql-3" value="+ displayDetails(): void" style="text;strokeColor=none;fillColor=none;align=left;verticalAlign=top;spacingLeft=4;spacingRight=4;overflow=hidden;rotatable=0;points=[[0,0.5],[1,0.5]];portConstraint=eastwest;" vertex="1" parent="PZnZLYRX3Kic9TIcQ0ql-0">
          <mxGeometry y="88" width="160" height="26" as="geometry" />
        </mxCell>
        <mxCell id="PZnZLYRX3Kic9TIcQ0ql-12" style="edgeStyle=orthogonalEdgeStyle;rounded=0;orthogonalLoop=1;jettySize=auto;html=1;exitX=0.5;exitY=0;exitDx=0;exitDy=0;entryX=0.464;entryY=1.013;entryDx=0;entryDy=0;entryPerimeter=0;endArrow=block;endFill=0;startSize=10;endSize=13;" edge="1" parent="WIyWlLk6GJQsqaUBKTNV-1" source="PZnZLYRX3Kic9TIcQ0ql-4" target="PZnZLYRX3Kic9TIcQ0ql-3">
          <mxGeometry relative="1" as="geometry" />
        </mxCell>
        <mxCell id="PZnZLYRX3Kic9TIcQ0ql-4" value="Customer" style="swimlane;fontStyle=1;align=center;verticalAlign=top;childLayout=stackLayout;horizontal=1;startSize=26;horizontalStack=0;resizeParent=1;resizeParentMax=0;resizeLast=0;collapsible=1;marginBottom=0;" vertex="1" parent="WIyWlLk6GJQsqaUBKTNV-1">
          <mxGeometry x="-80" y="210" width="180" height="160" as="geometry" />
        </mxCell>
        <mxCell id="PZnZLYRX3Kic9TIcQ0ql-5" value="- customerID: int&#xa;- address: string&#xa;+ loyaltyRating: float&#xa;" style="text;strokeColor=none;fillColor=none;align=left;verticalAlign=top;spacingLeft=4;spacingRight=4;overflow=hidden;rotatable=0;points=[[0,0.5],[1,0.5]];portConstraint=eastwest;" vertex="1" parent="PZnZLYRX3Kic9TIcQ0ql-4">
          <mxGeometry y="26" width="180" height="54" as="geometry" />
        </mxCell>
        <mxCell id="PZnZLYRX3Kic9TIcQ0ql-6" value="" style="line;strokeWidth=1;fillColor=none;align=left;verticalAlign=middle;spacingTop=-1;spacingLeft=3;spacingRight=3;rotatable=0;labelPosition=right;points=[];portConstraint=eastwest;" vertex="1" parent="PZnZLYRX3Kic9TIcQ0ql-4">
          <mxGeometry y="80" width="180" height="8" as="geometry" />
        </mxCell>
        <mxCell id="PZnZLYRX3Kic9TIcQ0ql-7" value="+ updateLoyaltyRating(): void&#xa;+ buyFood(): void&#xa;+ buyDrink(): void&#xa;+ buyTicket(): void&#xa;" style="text;strokeColor=none;fillColor=none;align=left;verticalAlign=top;spacingLeft=4;spacingRight=4;overflow=hidden;rotatable=0;points=[[0,0.5],[1,0.5]];portConstraint=eastwest;" vertex="1" parent="PZnZLYRX3Kic9TIcQ0ql-4">
          <mxGeometry y="88" width="180" height="72" as="geometry" />
        </mxCell>
        <mxCell id="PZnZLYRX3Kic9TIcQ0ql-14" style="edgeStyle=orthogonalEdgeStyle;rounded=0;orthogonalLoop=1;jettySize=auto;html=1;exitX=0.5;exitY=0;exitDx=0;exitDy=0;entryX=0.584;entryY=0.96;entryDx=0;entryDy=0;entryPerimeter=0;endArrow=block;endFill=0;startSize=10;endSize=13;" edge="1" parent="WIyWlLk6GJQsqaUBKTNV-1" source="PZnZLYRX3Kic9TIcQ0ql-8" target="PZnZLYRX3Kic9TIcQ0ql-3">
          <mxGeometry relative="1" as="geometry" />
        </mxCell>
        <mxCell id="PZnZLYRX3Kic9TIcQ0ql-8" value="Employee" style="swimlane;fontStyle=1;align=center;verticalAlign=top;childLayout=stackLayout;horizontal=1;startSize=26;horizontalStack=0;resizeParent=1;resizeParentMax=0;resizeLast=0;collapsible=1;marginBottom=0;" vertex="1" parent="WIyWlLk6GJQsqaUBKTNV-1">
          <mxGeometry x="120" y="210" width="180" height="160" as="geometry" />
        </mxCell>
        <mxCell id="PZnZLYRX3Kic9TIcQ0ql-9" value="- staffID: int&#xa;- phone: string&#xa;- salary: float&#xa;" style="text;strokeColor=none;fillColor=none;align=left;verticalAlign=top;spacingLeft=4;spacingRight=4;overflow=hidden;rotatable=0;points=[[0,0.5],[1,0.5]];portConstraint=eastwest;" vertex="1" parent="PZnZLYRX3Kic9TIcQ0ql-8">
          <mxGeometry y="26" width="180" height="54" as="geometry" />
        </mxCell>
        <mxCell id="PZnZLYRX3Kic9TIcQ0ql-10" value="" style="line;strokeWidth=1;fillColor=none;align=left;verticalAlign=middle;spacingTop=-1;spacingLeft=3;spacingRight=3;rotatable=0;labelPosition=right;points=[];portConstraint=eastwest;" vertex="1" parent="PZnZLYRX3Kic9TIcQ0ql-8">
          <mxGeometry y="80" width="180" height="8" as="geometry" />
        </mxCell>
        <mxCell id="PZnZLYRX3Kic9TIcQ0ql-11" value="+ cleanTheatre(): void&#xa;+ takePayment(): void&#xa;+ giveChange(): float&#xa;+ showSeatNumber(): string &#xa;" style="text;strokeColor=none;fillColor=none;align=left;verticalAlign=top;spacingLeft=4;spacingRight=4;overflow=hidden;rotatable=0;points=[[0,0.5],[1,0.5]];portConstraint=eastwest;" vertex="1" parent="PZnZLYRX3Kic9TIcQ0ql-8">
          <mxGeometry y="88" width="180" height="72" as="geometry" />
        </mxCell>
        <mxCell id="PZnZLYRX3Kic9TIcQ0ql-15" value="MovieTheatre" style="swimlane;fontStyle=1;align=center;verticalAlign=top;childLayout=stackLayout;horizontal=1;startSize=26;horizontalStack=0;resizeParent=1;resizeParentMax=0;resizeLast=0;collapsible=1;marginBottom=0;" vertex="1" parent="WIyWlLk6GJQsqaUBKTNV-1">
          <mxGeometry x="380" y="30" width="170" height="200" as="geometry" />
        </mxCell>
        <mxCell id="PZnZLYRX3Kic9TIcQ0ql-16" value="- name: string&#xa;- address: string&#xa;- staff: Staff[1..*]&#xa;- customers[0..*]&#xa;- manager: TheatreManager&#xa;- numberOfTheatres: int&#xa;&#xa;&#xa;" style="text;strokeColor=none;fillColor=none;align=left;verticalAlign=top;spacingLeft=4;spacingRight=4;overflow=hidden;rotatable=0;points=[[0,0.5],[1,0.5]];portConstraint=eastwest;" vertex="1" parent="PZnZLYRX3Kic9TIcQ0ql-15">
          <mxGeometry y="26" width="170" height="94" as="geometry" />
        </mxCell>
        <mxCell id="PZnZLYRX3Kic9TIcQ0ql-17" value="" style="line;strokeWidth=1;fillColor=none;align=left;verticalAlign=middle;spacingTop=-1;spacingLeft=3;spacingRight=3;rotatable=0;labelPosition=right;points=[];portConstraint=eastwest;" vertex="1" parent="PZnZLYRX3Kic9TIcQ0ql-15">
          <mxGeometry y="120" width="170" height="8" as="geometry" />
        </mxCell>
        <mxCell id="PZnZLYRX3Kic9TIcQ0ql-18" value="+ addCustomer(): void&#xa;+ getCustomer(): Customer&#xa;+ addStaff(): void&#xa;+ getStaff(): Employee&#xa;" style="text;strokeColor=none;fillColor=none;align=left;verticalAlign=top;spacingLeft=4;spacingRight=4;overflow=hidden;rotatable=0;points=[[0,0.5],[1,0.5]];portConstraint=eastwest;" vertex="1" parent="PZnZLYRX3Kic9TIcQ0ql-15">
          <mxGeometry y="128" width="170" height="72" as="geometry" />
        </mxCell>
        <mxCell id="PZnZLYRX3Kic9TIcQ0ql-39" style="edgeStyle=orthogonalEdgeStyle;rounded=0;orthogonalLoop=1;jettySize=auto;html=1;exitX=0.5;exitY=0;exitDx=0;exitDy=0;entryX=0.529;entryY=1;entryDx=0;entryDy=0;entryPerimeter=0;startSize=10;endArrow=diamond;endFill=1;endSize=18;" edge="1" parent="WIyWlLk6GJQsqaUBKTNV-1" source="PZnZLYRX3Kic9TIcQ0ql-22" target="PZnZLYRX3Kic9TIcQ0ql-18">
          <mxGeometry relative="1" as="geometry" />
        </mxCell>
        <mxCell id="PZnZLYRX3Kic9TIcQ0ql-22" value="TheatreManager" style="swimlane;fontStyle=1;align=center;verticalAlign=top;childLayout=stackLayout;horizontal=1;startSize=26;horizontalStack=0;resizeParent=1;resizeParentMax=0;resizeLast=0;collapsible=1;marginBottom=0;" vertex="1" parent="WIyWlLk6GJQsqaUBKTNV-1">
          <mxGeometry x="414" y="290" width="220" height="170" as="geometry" />
        </mxCell>
        <mxCell id="PZnZLYRX3Kic9TIcQ0ql-23" value="- ticketBooths: TicketBooth[1..*]&#xa;- theatres: Theatre[1..*]&#xa;- movies: Movie[1..*]&#xa;" style="text;strokeColor=none;fillColor=none;align=left;verticalAlign=top;spacingLeft=4;spacingRight=4;overflow=hidden;rotatable=0;points=[[0,0.5],[1,0.5]];portConstraint=eastwest;" vertex="1" parent="PZnZLYRX3Kic9TIcQ0ql-22">
          <mxGeometry y="26" width="220" height="64" as="geometry" />
        </mxCell>
        <mxCell id="PZnZLYRX3Kic9TIcQ0ql-24" value="" style="line;strokeWidth=1;fillColor=none;align=left;verticalAlign=middle;spacingTop=-1;spacingLeft=3;spacingRight=3;rotatable=0;labelPosition=right;points=[];portConstraint=eastwest;" vertex="1" parent="PZnZLYRX3Kic9TIcQ0ql-22">
          <mxGeometry y="90" width="220" height="8" as="geometry" />
        </mxCell>
        <mxCell id="PZnZLYRX3Kic9TIcQ0ql-25" value="+ paymentOption: &#xa;+ getCustomer(): Customer&#xa;+ addStaff(): void&#xa;+ getStaff(): Employee&#xa;" style="text;strokeColor=none;fillColor=none;align=left;verticalAlign=top;spacingLeft=4;spacingRight=4;overflow=hidden;rotatable=0;points=[[0,0.5],[1,0.5]];portConstraint=eastwest;" vertex="1" parent="PZnZLYRX3Kic9TIcQ0ql-22">
          <mxGeometry y="98" width="220" height="72" as="geometry" />
        </mxCell>
        <mxCell id="PZnZLYRX3Kic9TIcQ0ql-40" style="edgeStyle=orthogonalEdgeStyle;rounded=0;orthogonalLoop=1;jettySize=auto;html=1;exitX=0.5;exitY=0;exitDx=0;exitDy=0;entryX=0.245;entryY=1.009;entryDx=0;entryDy=0;entryPerimeter=0;startSize=10;endArrow=none;endFill=0;endSize=16;" edge="1" parent="WIyWlLk6GJQsqaUBKTNV-1" source="PZnZLYRX3Kic9TIcQ0ql-26" target="PZnZLYRX3Kic9TIcQ0ql-25">
          <mxGeometry relative="1" as="geometry" />
        </mxCell>
        <mxCell id="PZnZLYRX3Kic9TIcQ0ql-26" value="TicketBooth" style="swimlane;fontStyle=1;align=center;verticalAlign=top;childLayout=stackLayout;horizontal=1;startSize=26;horizontalStack=0;resizeParent=1;resizeParentMax=0;resizeLast=0;collapsible=1;marginBottom=0;" vertex="1" parent="WIyWlLk6GJQsqaUBKTNV-1">
          <mxGeometry x="140" y="520" width="220" height="170" as="geometry" />
        </mxCell>
        <mxCell id="PZnZLYRX3Kic9TIcQ0ql-27" value="- tickets: Ticket[0..*]&#xa;-boothID: int&#xa;" style="text;strokeColor=none;fillColor=none;align=left;verticalAlign=top;spacingLeft=4;spacingRight=4;overflow=hidden;rotatable=0;points=[[0,0.5],[1,0.5]];portConstraint=eastwest;" vertex="1" parent="PZnZLYRX3Kic9TIcQ0ql-26">
          <mxGeometry y="26" width="220" height="64" as="geometry" />
        </mxCell>
        <mxCell id="PZnZLYRX3Kic9TIcQ0ql-28" value="" style="line;strokeWidth=1;fillColor=none;align=left;verticalAlign=middle;spacingTop=-1;spacingLeft=3;spacingRight=3;rotatable=0;labelPosition=right;points=[];portConstraint=eastwest;" vertex="1" parent="PZnZLYRX3Kic9TIcQ0ql-26">
          <mxGeometry y="90" width="220" height="8" as="geometry" />
        </mxCell>
        <mxCell id="PZnZLYRX3Kic9TIcQ0ql-29" value="- giveTicket(): &#xa;&#xa;- takePayment():&#xa;" style="text;strokeColor=none;fillColor=none;align=left;verticalAlign=top;spacingLeft=4;spacingRight=4;overflow=hidden;rotatable=0;points=[[0,0.5],[1,0.5]];portConstraint=eastwest;" vertex="1" parent="PZnZLYRX3Kic9TIcQ0ql-26">
          <mxGeometry y="98" width="220" height="72" as="geometry" />
        </mxCell>
        <mxCell id="PZnZLYRX3Kic9TIcQ0ql-38" style="edgeStyle=orthogonalEdgeStyle;rounded=0;orthogonalLoop=1;jettySize=auto;html=1;exitX=0.5;exitY=0;exitDx=0;exitDy=0;entryX=0.665;entryY=1.009;entryDx=0;entryDy=0;entryPerimeter=0;startSize=10;endArrow=diamond;endFill=0;endSize=16;" edge="1" parent="WIyWlLk6GJQsqaUBKTNV-1" source="PZnZLYRX3Kic9TIcQ0ql-34" target="PZnZLYRX3Kic9TIcQ0ql-25">
          <mxGeometry relative="1" as="geometry" />
        </mxCell>
        <mxCell id="PZnZLYRX3Kic9TIcQ0ql-34" value="Theatre" style="swimlane;fontStyle=1;align=center;verticalAlign=top;childLayout=stackLayout;horizontal=1;startSize=26;horizontalStack=0;resizeParent=1;resizeParentMax=0;resizeLast=0;collapsible=1;marginBottom=0;" vertex="1" parent="WIyWlLk6GJQsqaUBKTNV-1">
          <mxGeometry x="414" y="570" width="220" height="170" as="geometry" />
        </mxCell>
        <mxCell id="PZnZLYRX3Kic9TIcQ0ql-35" value="- screenSize(): string&#xa;- capacity: int&#xa;- schedule: Time[1..*]" style="text;strokeColor=none;fillColor=none;align=left;verticalAlign=top;spacingLeft=4;spacingRight=4;overflow=hidden;rotatable=0;points=[[0,0.5],[1,0.5]];portConstraint=eastwest;" vertex="1" parent="PZnZLYRX3Kic9TIcQ0ql-34">
          <mxGeometry y="26" width="220" height="64" as="geometry" />
        </mxCell>
        <mxCell id="PZnZLYRX3Kic9TIcQ0ql-36" value="" style="line;strokeWidth=1;fillColor=none;align=left;verticalAlign=middle;spacingTop=-1;spacingLeft=3;spacingRight=3;rotatable=0;labelPosition=right;points=[];portConstraint=eastwest;" vertex="1" parent="PZnZLYRX3Kic9TIcQ0ql-34">
          <mxGeometry y="90" width="220" height="8" as="geometry" />
        </mxCell>
        <mxCell id="PZnZLYRX3Kic9TIcQ0ql-37" value="- getMovie(): Movie&#xa;- playMovie(): void&#xa;- stopMovie(): void&#xa;" style="text;strokeColor=none;fillColor=none;align=left;verticalAlign=top;spacingLeft=4;spacingRight=4;overflow=hidden;rotatable=0;points=[[0,0.5],[1,0.5]];portConstraint=eastwest;" vertex="1" parent="PZnZLYRX3Kic9TIcQ0ql-34">
          <mxGeometry y="98" width="220" height="72" as="geometry" />
        </mxCell>
        <mxCell id="PZnZLYRX3Kic9TIcQ0ql-45" style="edgeStyle=orthogonalEdgeStyle;rounded=0;orthogonalLoop=1;jettySize=auto;html=1;exitX=0.5;exitY=0;exitDx=0;exitDy=0;entryX=1;entryY=0.5;entryDx=0;entryDy=0;startSize=10;endArrow=none;endFill=0;endSize=16;" edge="1" parent="WIyWlLk6GJQsqaUBKTNV-1" source="PZnZLYRX3Kic9TIcQ0ql-41" target="PZnZLYRX3Kic9TIcQ0ql-22">
          <mxGeometry relative="1" as="geometry" />
        </mxCell>
        <mxCell id="PZnZLYRX3Kic9TIcQ0ql-46" style="edgeStyle=orthogonalEdgeStyle;rounded=0;orthogonalLoop=1;jettySize=auto;html=1;exitX=0;exitY=0.5;exitDx=0;exitDy=0;entryX=1;entryY=0.5;entryDx=0;entryDy=0;startSize=10;endArrow=none;endFill=0;endSize=16;" edge="1" parent="WIyWlLk6GJQsqaUBKTNV-1" source="PZnZLYRX3Kic9TIcQ0ql-41" target="PZnZLYRX3Kic9TIcQ0ql-34">
          <mxGeometry relative="1" as="geometry" />
        </mxCell>
        <mxCell id="PZnZLYRX3Kic9TIcQ0ql-41" value="Movies" style="swimlane;fontStyle=1;align=center;verticalAlign=top;childLayout=stackLayout;horizontal=1;startSize=26;horizontalStack=0;resizeParent=1;resizeParentMax=0;resizeLast=0;collapsible=1;marginBottom=0;" vertex="1" parent="WIyWlLk6GJQsqaUBKTNV-1">
          <mxGeometry x="750" y="540" width="220" height="150" as="geometry" />
        </mxCell>
        <mxCell id="PZnZLYRX3Kic9TIcQ0ql-42" value="- title: string&#xa;- runningTime: int" style="text;strokeColor=none;fillColor=none;align=left;verticalAlign=top;spacingLeft=4;spacingRight=4;overflow=hidden;rotatable=0;points=[[0,0.5],[1,0.5]];portConstraint=eastwest;" vertex="1" parent="PZnZLYRX3Kic9TIcQ0ql-41">
          <mxGeometry y="26" width="220" height="44" as="geometry" />
        </mxCell>
        <mxCell id="PZnZLYRX3Kic9TIcQ0ql-43" value="" style="line;strokeWidth=1;fillColor=none;align=left;verticalAlign=middle;spacingTop=-1;spacingLeft=3;spacingRight=3;rotatable=0;labelPosition=right;points=[];portConstraint=eastwest;" vertex="1" parent="PZnZLYRX3Kic9TIcQ0ql-41">
          <mxGeometry y="70" width="220" height="8" as="geometry" />
        </mxCell>
        <mxCell id="PZnZLYRX3Kic9TIcQ0ql-44" value="- sceneSelect(): int" style="text;strokeColor=none;fillColor=none;align=left;verticalAlign=top;spacingLeft=4;spacingRight=4;overflow=hidden;rotatable=0;points=[[0,0.5],[1,0.5]];portConstraint=eastwest;" vertex="1" parent="PZnZLYRX3Kic9TIcQ0ql-41">
          <mxGeometry y="78" width="220" height="72" as="geometry" />
        </mxCell>
      </root>
    </mxGraphModel>
  </diagram>
</mxfile>
